<?xml version="1.0" encoding="UTF-8" standalone="no"?>
<!-- Created with Inkscape (http://www.inkscape.org/) -->

<svg
   width="100mm"
   height="100mm"
   viewBox="0 0 100 100"
   version="1.1"
   id="svg1"
   xml:space="preserve"
   xmlns="http://www.w3.org/2000/svg"
   xmlns:svg="http://www.w3.org/2000/svg"><defs
     id="defs1" /><g
     id="layer1"><g
       id="g1"
       transform="matrix(1.2565986,0,0,1.2565986,-12.843639,-25.659856)"><rect
         style="fill:#30b864;fill-opacity:1;stroke:none;stroke-width:0.694159;stroke-opacity:1"
         id="rect2879"
         width="23.912626"
         height="23.912626"
         x="38.155895"
         y="20.555105" /><path
         id="rect3371"
         style="fill:#585a5b;fill-opacity:1;stroke:none;stroke-width:0.694159;stroke-opacity:1"
         d="M 10.276938,20.553876 V 44.467162 H 34.190226 V 20.553876 Z m 55.532838,0 V 44.467162 H 89.723062 V 20.553876 Z M 10.276938,48.320295 V 72.233579 H 34.190226 V 48.320295 Z m 27.766421,0 V 72.233579 H 61.956643 V 48.320295 Z m 27.766417,0 V 72.233579 H 89.723062 V 48.320295 Z M 10.276938,76.086712 V 100 H 34.190226 V 76.086712 Z m 55.532838,0 V 100 H 89.723062 V 76.086712 Z" /><path
         id="circle3401"
         style="color:#000000;fill:#ffffff;fill-opacity:1;stroke-width:0.126433;-inkscape-stroke:none"
         d="m 48.437617,24.220162 c -1.420927,0.01829 -2.086582,0.65712 -2.134076,0.700177 -0.54863,0.497396 -1.029126,1.111216 -1.362551,1.825787 -0.281481,0.326629 -0.430234,0.834439 -0.554286,0.987703 -0.80691,2.306915 -1.561845,6.865015 1.687881,9.844018 1.70696,1.190016 3.29473,1.763759 4.635548,1.81141 l 0.04046,0.119802 -4.867965,4.958029 0.712159,1.2e-5 4.745233,-4.823318 -0.08998,-0.26463 c 0.387606,-0.0292 0.749991,-0.107105 1.08461,-0.229488 l 0.309889,0.502105 -2.367716,4.815319 h 0.616473 l 2.33641,-4.843512 -0.422236,-0.686866 c 1.035279,-0.562989 1.725948,-1.630166 1.929615,-3.104742 1.58414,3.202982 2.39806,4.956983 2.988666,5.949114 0.260871,0.454293 2.941892,-0.02601 2.662272,-0.391886 -0.672884,-0.8394 -3.729152,-5.508155 -5.806416,-8.468156 -0.0041,-0.01979 -0.0074,-0.03924 -0.01171,-0.0591 -0.591714,-0.776999 -1.63089,-3.558791 -3.599925,-4.182962 0.03794,-2.27997 1.468695,-2.400619 3.40132,-2.809762 -2.056841,-0.349255 -3.562468,0.668226 -3.973713,0.723606 1.193839,-1.584988 2.752905,-2.090169 3.420487,-2.101598 -0.722082,-0.393624 -2.004408,0.172474 -2.655882,0.3232 -1.038026,-0.426981 -1.894907,-0.583421 -2.584534,-0.594219 -0.04742,-7.4e-4 -0.0942,-5.75e-4 -0.140036,0 z m 0.504768,1.135193 c 0.313309,5e-6 0.567589,0.253752 0.567595,0.567064 -6e-6,0.313313 -0.254286,0.567591 -0.567595,0.567596 -0.313315,-6e-6 -0.567058,-0.254283 -0.567064,-0.567596 6e-6,-0.313312 0.253749,-0.567059 0.567064,-0.567064 z" /></g></g></svg>
